<?xml version="1.0" encoding="UTF-8"?>
<!DOCTYPE svg PUBLIC "-//W3C//DTD SVG 1.1//EN" "http://www.w3.org/Graphics/SVG/1.1/DTD/svg11.dtd">
<svg xmlns="http://www.w3.org/2000/svg" xmlns:xlink="http://www.w3.org/1999/xlink" version="1.1">
  <symbol id="dashboard" viewBox="0 0 24 24">
    <path d="M19,5V7H15V5H19M9,5V11H5V5H9M19,13V19H15V13H19M9,17V19H5V17H9M21,3H13V9H21V3M11,3H3V13H11V3M21,11H13V21H21V11M11,15H3V21H11V15Z" />
  </symbol>
  <symbol id="profile" viewBox="0 0 24 24">
    <path d="M12,4A4,4 0 0,1 16,8A4,4 0 0,1 12,12A4,4 0 0,1 8,8A4,4 0 0,1 12,4M12,6A2,2 0 0,0 10,8A2,2 0 0,0 12,10A2,2 0 0,0 14,8A2,2 0 0,0 12,6M12,13C14.67,13 20,14.33 20,17V20H4V17C4,14.33 9.33,13 12,13M12,14.9C9.03,14.9 5.9,16.36 5.9,17V18.1H18.1V17C18.1,16.36 14.97,14.9 12,14.9Z" />
  </symbol>
  <symbol id="calendar" viewBox="0 0 24 24">
    <path d="M19,4H18V2H16V4H8V2H6V4H5C3.89,4 3,4.9 3,6V20A2,2 0 0,0 5,22H19A2,2 0 0,0 21,20V6A2,2 0 0,0 19,4M19,20H5V10H19V20M19,8H5V6H19V8M12,13H17V18H12V13Z" />
  </symbol>
  <symbol id="email" viewBox="0 0 24 24">
    <path d="M22 6C22 4.9 21.1 4 20 4H4C2.9 4 2 4.9 2 6V18C2 19.1 2.9 20 4 20H20C21.1 20 22 19.1 22 18V6M20 6L12 11L4 6H20M20 18H4V8L12 13L20 8V18Z" />
  </symbol>
  <symbol id="tasks" viewBox="0 0 24 24">
    <path d="M19,19H5V5H15V3H5C3.89,3 3,3.89 3,5V19A2,2 0 0,0 5,21H19A2,2 0 0,0 21,19V11H19M7.91,10.08L6.5,11.5L11,16L21,6L19.59,4.58L11,13.17L7.91,10.08Z" />
  </symbol>
  <symbol id="contacts" viewBox="0 0 24 24">
    <path d="M19,19H5V5H19M19,3H5A2,2 0 0,0 3,5V19A2,2 0 0,0 5,21H19A2,2 0 0,0 21,19V5C21,3.89 20.1,3 19,3M16.5,16.25C16.5,14.75 13.5,14 12,14C10.5,14 7.5,14.75 7.5,16.25V17H16.5M12,12.25A2.25,2.25 0 0,0 14.25,10A2.25,2.25 0 0,0 12,7.75A2.25,2.25 0 0,0 9.75,10A2.25,2.25 0 0,0 12,12.25Z" />
  </symbol>
  <symbol id="chat" viewBox="0 0 24 24">
    <path d="M20 2H4C2.9 2 2 2.9 2 4V22L6 18H20C21.1 18 22 17.1 22 16V4C22 2.9 21.1 2 20 2M20 16H5.2L4 17.2V4H20V16Z" />
  </symbol>
  <symbol id="notes" viewBox="0 0 24 24">
    <path d="M3,6V22H21V24H3A2,2 0 0,1 1,22V6H3M16,9H21.5L16,3.5V9M7,2H17L23,8V18A2,2 0 0,1 21,20H7C5.89,20 5,19.1 5,18V4A2,2 0 0,1 7,2M7,4V18H21V11H14V4H7Z" />
  </symbol>
  <symbol id="settings" viewBox="0 0 24 24">
    <path d="M12,8A4,4 0 0,1 16,12A4,4 0 0,1 12,16A4,4 0 0,1 8,12A4,4 0 0,1 12,8M12,10A2,2 0 0,0 10,12A2,2 0 0,0 12,14A2,2 0 0,0 14,12A2,2 0 0,0 12,10M10,22C9.75,22 9.54,21.82 9.5,21.58L9.13,18.93C8.5,18.68 7.96,18.34 7.44,17.94L4.95,18.95C4.73,19.03 4.46,18.95 4.34,18.73L2.34,15.27C2.21,15.05 2.27,14.78 2.46,14.63L4.57,12.97L4.5,12L4.57,11L2.46,9.37C2.27,9.22 2.21,8.95 2.34,8.73L4.34,5.27C4.46,5.05 4.73,4.96 4.95,5.05L7.44,6.05C7.96,5.66 8.5,5.32 9.13,5.07L9.5,2.42C9.54,2.18 9.75,2 10,2H14C14.25,2 14.46,2.18 14.5,2.42L14.87,5.07C15.5,5.32 16.04,5.66 16.56,6.05L19.05,5.05C19.27,4.96 19.54,5.05 19.66,5.27L21.66,8.73C21.79,8.95 21.73,9.22 21.54,9.37L19.43,11L19.5,12L19.43,13L21.54,14.63C21.73,14.78 21.79,15.05 21.66,15.27L19.66,18.73C19.54,18.95 19.27,19.04 19.05,18.95L16.56,17.95C16.04,18.34 15.5,18.68 14.87,18.93L14.5,21.58C14.46,21.82 14.25,22 14,22H10M11.25,4L10.88,6.61C9.68,6.86 8.62,7.5 7.85,8.39L5.44,7.35L4.69,8.65L6.8,10.2C6.4,11.37 6.4,12.64 6.8,13.8L4.68,15.36L5.43,16.66L7.86,15.62C8.63,16.5 9.68,17.14 10.87,17.38L11.24,20H12.76L13.13,17.39C14.32,17.14 15.37,16.5 16.14,15.62L18.57,16.66L19.32,15.36L17.2,13.81C17.6,12.64 17.6,11.37 17.2,10.2L19.31,8.65L18.56,7.35L16.15,8.39C15.38,7.5 14.32,6.86 13.12,6.62L12.75,4H11.25Z" />
  </symbol>
  <symbol id="support" viewBox="0 0 24 24">
    <path d="M11,18H13V16H11V18M12,2A10,10 0 0,0 2,12A10,10 0 0,0 12,22A10,10 0 0,0 22,12A10,10 0 0,0 12,2M12,20C7.59,20 4,16.41 4,12C4,7.59 7.59,4 12,4C16.41,4 20,7.59 20,12C20,16.41 16.41,20 12,20M12,6A4,4 0 0,0 8,10H10A2,2 0 0,1 12,8A2,2 0 0,1 14,10C14,12 11,11.75 11,15H13C13,12.75 16,12.5 16,10A4,4 0 0,0 12,6Z" />
  </symbol>
</svg>
